# Blender v2.79 (sub 0) OBJ File: ''
# www.blender.org
mtllib board.mtl
o Cube
v -3.000000 2.999999 -1.000001
v 3.000000 -2.999999 1.000001
v 3.000000 -3.000000 -0.999999
v -3.000000 3.000000 0.999999
v -3.000000 -3.000000 1.000001
v 3.000000 3.000000 -1.000000
v 3.000000 3.000001 0.999999
v -3.000000 -3.000000 -0.999999
vt 0.500000 1.000000
vt 0.500000 0.500000
vt 0.666667 0.500000
vt 0.666667 1.000000
vt 0.500000 0.000000
vt 0.500000 0.500000
vt 0.000000 0.500000
vt 0.000000 0.000000
vt 0.500000 0.500000
vt 0.500000 0.000000
vt 0.666667 0.000000
vt 0.666667 0.500000
vt 0.000000 0.500000
vt 0.000000 1.000000
vt 1.000000 0.000000
vt 1.000000 0.500000
vt 0.833333 0.500000
vt 0.833333 0.000000
vt 0.833333 0.000000
vt 0.833333 0.500000
vt 0.666667 0.500000
vt 0.666667 0.000000
vn -1.0000 -0.0000 0.0000
vn -0.0000 0.0000 1.0000
vn -0.0000 1.0000 -0.0000
vn 0.0000 -0.0000 -1.0000
vn 1.0000 0.0000 -0.0000
vn 0.0000 -1.0000 0.0000
usemtl Material
s off
f 1/1/1 8/2/1 5/3/1 4/4/1
f 7/5/2 4/6/2 5/7/2 2/8/2
f 6/9/3 1/10/3 4/11/3 7/12/3
f 3/13/4 8/2/4 1/1/4 6/14/4
f 7/15/5 2/16/5 3/17/5 6/18/5
f 2/19/6 5/20/6 8/21/6 3/22/6
