# Blender v2.79 (sub 0) OBJ File: 'untitled.blend'
# www.blender.org
mtllib CartoonTree.mtl
o Cylinder
v 0.000000 -1.000000 -0.630390
v 0.000000 1.000000 -0.630390
v 0.445753 1.000000 -0.445753
v 0.445753 -1.000000 -0.445753
v 0.630390 1.000000 0.000000
v 0.630390 -1.000000 -0.000000
v 0.445753 1.000000 0.445753
v 0.445753 -1.000000 0.445753
v 0.000000 1.000000 0.630390
v 0.000000 -1.000000 0.630390
v -0.445753 1.000000 0.445753
v -0.445753 -1.000000 0.445753
v -0.630390 1.000000 0.000000
v -0.630390 -1.000000 -0.000000
v -0.445753 1.000000 -0.445753
v -0.445753 -1.000000 -0.445753
vn 0.3827 0.0000 -0.9239
vn 0.9239 0.0000 -0.3827
vn 0.9239 -0.0000 0.3827
vn 0.3827 -0.0000 0.9239
vn -0.3827 -0.0000 0.9239
vn -0.9239 -0.0000 0.3827
vn 0.0000 1.0000 0.0000
vn -0.3827 0.0000 -0.9239
vn -0.9239 0.0000 -0.3827
vn 0.0000 -1.0000 -0.0000
usemtl Material.002
s off
f 1//1 2//1 3//1 4//1
f 4//2 3//2 5//2 6//2
f 6//3 5//3 7//3 8//3
f 8//4 7//4 9//4 10//4
f 10//5 9//5 11//5 12//5
f 12//6 11//6 13//6 14//6
f 3//7 2//7 15//7 13//7 11//7 9//7 7//7 5//7
f 16//8 15//8 2//8 1//8
f 14//9 13//9 15//9 16//9
f 1//10 4//10 6//10 8//10 10//10 12//10 14//10 16//10
o Cone
v -2.086378 0.656203 0.000000
v 0.000000 4.828959 0.000001
v -1.475292 0.656203 -1.475292
v 0.000000 0.656203 -2.086378
v 1.475292 0.656203 -1.475292
v -1.475292 0.656203 1.475292
v 0.000000 0.656203 2.086378
v 1.475292 0.656203 1.475292
v 2.086378 0.656203 0.000000
vn -0.8387 0.4194 -0.3474
vn 0.3474 0.4194 -0.8387
vn -0.8387 0.4194 0.3474
vn -0.3474 0.4194 0.8387
vn 0.3474 0.4194 0.8387
vn 0.8387 0.4194 0.3474
vn -0.3474 0.4194 -0.8387
vn 0.8387 0.4194 -0.3474
vn 0.0000 -1.0000 -0.0000
usemtl Material.001
s off
f 17//11 18//11 19//11
f 20//12 18//12 21//12
f 22//13 18//13 17//13
f 23//14 18//14 22//14
f 24//15 18//15 23//15
f 25//16 18//16 24//16
f 19//17 18//17 20//17
f 21//18 18//18 25//18
f 20//19 21//19 25//19 24//19 23//19 22//19 17//19 19//19
o Cone.002
v -0.969458 4.327174 0.000001
v 0.000000 6.266090 0.000001
v -0.685510 4.327174 -0.685509
v 0.000000 4.327174 -0.969457
v 0.685510 4.327174 -0.685509
v -0.685510 4.327174 0.685511
v 0.000000 4.327174 0.969459
v 0.685510 4.327174 0.685511
v 0.969458 4.327174 0.000001
vn -0.8387 0.4194 -0.3474
vn 0.3474 0.4194 -0.8387
vn -0.8387 0.4194 0.3474
vn -0.3474 0.4194 0.8387
vn 0.3474 0.4194 0.8387
vn 0.8387 0.4194 0.3474
vn -0.3474 0.4194 -0.8387
vn 0.8387 0.4194 -0.3474
vn 0.0000 -1.0000 0.0000
usemtl Material.001
s off
f 26//20 27//20 28//20
f 29//21 27//21 30//21
f 31//22 27//22 26//22
f 32//23 27//23 31//23
f 33//24 27//24 32//24
f 34//25 27//25 33//25
f 28//26 27//26 29//26
f 30//27 27//27 34//27
f 29//28 30//28 34//28 33//28 32//28 31//28 26//28 28//28
o Cone.001
v -1.525971 2.547373 0.000000
v 0.000000 5.599314 0.000001
v -1.079024 2.547373 -1.079024
v 0.000000 2.547373 -1.525971
v 1.079024 2.547373 -1.079024
v -1.079024 2.547373 1.079024
v 0.000000 2.547373 1.525971
v 1.079024 2.547373 1.079024
v 1.525971 2.547373 0.000000
vn -0.8387 0.4194 -0.3474
vn 0.3474 0.4194 -0.8387
vn -0.8387 0.4194 0.3474
vn -0.3474 0.4194 0.8387
vn 0.3474 0.4194 0.8387
vn 0.8387 0.4194 0.3474
vn -0.3474 0.4194 -0.8387
vn 0.8387 0.4194 -0.3474
vn 0.0000 -1.0000 -0.0000
usemtl Material.001
s off
f 35//29 36//29 37//29
f 38//30 36//30 39//30
f 40//31 36//31 35//31
f 41//32 36//32 40//32
f 42//33 36//33 41//33
f 43//34 36//34 42//34
f 37//35 36//35 38//35
f 39//36 36//36 43//36
f 38//37 39//37 43//37 42//37 41//37 40//37 35//37 37//37
